<svg width="256" height="256" viewBox="0 0 256 256" xmlns="http://www.w3.org/2000/svg">
<!-- App Icon Background -->
<rect width="256" height="256" rx="48" fill="#0a0a0a"/>
<!-- Beetle centered and scaled -->
<g transform="translate(128, 138) scale(1.2)">
<!-- Legs outlined -->
<path d="M-38,-30 L-50,-36 L-56,-28 L-60,-20" stroke="#4ade80" stroke-width="5" fill="none" stroke-linecap="round" stroke-linejoin="round"/>
<path d="M-38,-30 L-50,-36 L-56,-28 L-60,-20" stroke="#166534" stroke-width="2.5" fill="none" stroke-linecap="round" stroke-linejoin="round"/>
<path d="M38,-30 L50,-36 L56,-28 L60,-20" stroke="#4ade80" stroke-width="5" fill="none" stroke-linecap="round" stroke-linejoin="round"/>
<path d="M38,-30 L50,-36 L56,-28 L60,-20" stroke="#166534" stroke-width="2.5" fill="none" stroke-linecap="round" stroke-linejoin="round"/>
<path d="M-44,0 L-56,-4 L-64,6 L-66,16" stroke="#4ade80" stroke-width="5" fill="none" stroke-linecap="round" stroke-linejoin="round"/>
<path d="M-44,0 L-56,-4 L-64,6 L-66,16" stroke="#166534" stroke-width="2.5" fill="none" stroke-linecap="round" stroke-linejoin="round"/>
<path d="M44,0 L56,-4 L64,6 L66,16" stroke="#4ade80" stroke-width="5" fill="none" stroke-linecap="round" stroke-linejoin="round"/>
<path d="M44,0 L56,-4 L64,6 L66,16" stroke="#166534" stroke-width="2.5" fill="none" stroke-linecap="round" stroke-linejoin="round"/>
<path d="M-36,32 L-48,38 L-52,50 L-48,58" stroke="#4ade80" stroke-width="5" fill="none" stroke-linecap="round" stroke-linejoin="round"/>
<path d="M-36,32 L-48,38 L-52,50 L-48,58" stroke="#166534" stroke-width="2.5" fill="none" stroke-linecap="round" stroke-linejoin="round"/>
<path d="M36,32 L48,38 L52,50 L48,58" stroke="#4ade80" stroke-width="5" fill="none" stroke-linecap="round" stroke-linejoin="round"/>
<path d="M36,32 L48,38 L52,50 L48,58" stroke="#166534" stroke-width="2.5" fill="none" stroke-linecap="round" stroke-linejoin="round"/>
<!-- Shield body -->
<path d="M0,-48 Q-44,-40 -44,0 Q-44,36 -24,50 Q-8,58 0,60 Q8,58 24,50 Q44,36 44,0 Q44,-40 0,-48Z" fill="#22c55e"/>
<line x1="0" y1="-46" x2="0" y2="58" stroke="#16a34a" stroke-width="1.5"/>
<path d="M-18,-30 Q-24,0 -18,30" stroke="#16a34a" stroke-width="0.8" fill="none" opacity="0.5"/>
<path d="M18,-30 Q24,0 18,30" stroke="#16a34a" stroke-width="0.8" fill="none" opacity="0.5"/>
<!-- Lightning bolt -->
<path d="M-7,-22 L5,-22 L-1,-4 L10,-4 L-5,28 L0,4 L-10,4 Z" fill="#4ade80" stroke="#14532d" stroke-width="1.2"/>
<!-- Head -->
<ellipse cx="0" cy="-58" rx="18" ry="14" fill="#166534" stroke="#4ade80" stroke-width="1.2"/>
<!-- Mandibles -->
<path d="M-8,-68 L-12,-78 L-6,-80" stroke="#4ade80" stroke-width="4" fill="none" stroke-linecap="round" stroke-linejoin="round"/>
<path d="M-8,-68 L-12,-78 L-6,-80" stroke="#166534" stroke-width="2" fill="none" stroke-linecap="round" stroke-linejoin="round"/>
<path d="M8,-68 L12,-78 L6,-80" stroke="#4ade80" stroke-width="4" fill="none" stroke-linecap="round" stroke-linejoin="round"/>
<path d="M8,-68 L12,-78 L6,-80" stroke="#166534" stroke-width="2" fill="none" stroke-linecap="round" stroke-linejoin="round"/>
<!-- Antennae -->
<path d="M-12,-66 L-20,-82 Q-24,-88 -30,-86" stroke="#4ade80" stroke-width="4" fill="none" stroke-linecap="round"/>
<path d="M-12,-66 L-20,-82 Q-24,-88 -30,-86" stroke="#166534" stroke-width="2" fill="none" stroke-linecap="round"/>
<circle cx="-31" cy="-85" r="3" fill="#4ade80"/>
<path d="M12,-66 L20,-82 Q24,-88 30,-86" stroke="#4ade80" stroke-width="4" fill="none" stroke-linecap="round"/>
<path d="M12,-66 L20,-82 Q24,-88 30,-86" stroke="#166534" stroke-width="2" fill="none" stroke-linecap="round"/>
<circle cx="31" cy="-85" r="3" fill="#4ade80"/>
<!-- Eyes -->
<circle cx="-9" cy="-60" r="3.5" fill="#4ade80"/>
<circle cx="9" cy="-60" r="3.5" fill="#4ade80"/>
</g>
</svg>
